<?xml version="1.0" encoding="UTF-8"?>
<svg id="Layer_1" xmlns="http://www.w3.org/2000/svg" version="1.1" viewBox="0 0 355.02 114.67">
  <!-- Generator: Adobe Illustrator 29.7.0, SVG Export Plug-In . SVG Version: 2.1.1 Build 138)  -->
  <defs>
    <style>
      .st0 {
        fill: #fff;
      }
    </style>
  </defs>
  <g>
    <path class="st0" d="M73.14,91.81c-3.08,0-6.13-.4-9.06-1.19l-3.49-.94,1.05-3.46c.78-2.58,1.18-5.29,1.18-8.05,0-7.03-2.62-13.74-7.38-18.9l-2.19-2.37,2.19-2.37c4.76-5.16,7.38-11.88,7.38-18.92,0-2.76-.4-5.46-1.18-8.04l-1.05-3.46,3.49-.94c2.93-.79,5.98-1.19,9.06-1.19,19.25,0,34.91,15.66,34.91,34.91s-15.66,34.91-34.91,34.91ZM69.24,84.54c1.28.18,2.59.27,3.9.27,15.39,0,27.91-12.52,27.91-27.91s-12.52-27.91-27.91-27.91c-1.31,0-2.61.09-3.9.27.38,2.08.58,4.21.58,6.36,0,7.76-2.55,15.21-7.23,21.29,4.68,6.08,7.23,13.52,7.23,21.27,0,2.15-.19,4.28-.58,6.36Z"/>
    <path class="st0" d="M34.91,113.09C15.66,113.09,0,97.43,0,78.18c0-8.79,3.28-17.19,9.24-23.64l2.57-2.78,2.57,2.78c5.29,5.72,12.77,9,20.53,9,2.46,0,4.9-.32,7.24-.95l3.29-.88.98,3.26c2.75,9.18,10.22,16.42,19.48,18.91l3.48.93-1.04,3.45c-4.39,14.63-18.14,24.84-33.43,24.84ZM12.12,62.07c-3.33,4.68-5.12,10.29-5.12,16.11,0,15.39,12.52,27.91,27.91,27.91,11.08,0,21.15-6.71,25.55-16.66-8.88-3.48-16.07-10.55-19.67-19.39-1.93.33-3.9.49-5.88.49-8.37,0-16.48-3.04-22.79-8.46Z"/>
    <path class="st0" d="M67.36,91.5l-3.27-.88c-10.54-2.82-19.22-10.57-23.29-20.58-1.93.33-3.9.49-5.88.49-9.71,0-19.06-4.1-25.67-11.24l-2.19-2.37,2.19-2.38c6.59-7.16,15.95-11.26,25.67-11.26,1.98,0,3.95.17,5.87.49,4.09-10.03,12.77-17.78,23.3-20.59l3.27-.88.98,3.24c.98,3.24,1.48,6.63,1.48,10.08,0,7.76-2.55,15.21-7.23,21.29,4.68,6.08,7.23,13.52,7.23,21.27,0,3.44-.5,6.83-1.48,10.08l-.98,3.24ZM45.44,61.7l.98,3.26c2.4,8.01,8.4,14.55,16.05,17.73.24-1.48.36-2.99.36-4.51,0-7.03-2.62-13.74-7.38-18.9l-2.19-2.37,2.19-2.37c4.76-5.16,7.38-11.88,7.38-18.92,0-1.52-.12-3.03-.36-4.51-7.64,3.18-13.64,9.72-16.06,17.75l-.98,3.26-3.28-.89c-2.33-.63-4.76-.95-7.23-.95-6.62,0-13.04,2.38-18.05,6.63,5.02,4.24,11.43,6.62,18.05,6.62,2.46,0,4.9-.32,7.24-.95l3.29-.88Z"/>
    <path class="st0" d="M11.81,62.08l-2.57-2.79C3.28,52.82,0,44.41,0,35.62,0,16.37,15.66.71,34.91.71c15.29,0,29.04,10.22,33.43,24.84l1.04,3.45-3.48.93c-9.26,2.48-16.73,9.73-19.49,18.92l-.98,3.26-3.28-.89c-2.33-.63-4.76-.95-7.23-.95-7.77,0-15.26,3.28-20.53,9l-2.57,2.79ZM34.91,7.71c-15.39,0-27.91,12.52-27.91,27.91,0,5.82,1.8,11.43,5.12,16.13,6.3-5.42,14.41-8.47,22.79-8.47,1.98,0,3.95.17,5.87.49,3.61-8.85,10.8-15.92,19.67-19.4-4.4-9.96-14.47-16.66-25.55-16.66Z"/>
  </g>
  <g>
    <path class="st0" d="M157.44,24.67v9.02h-33.87v-9.02s33.87,0,33.87,0ZM133.42,9.08h10.55v64.1c0,2.93.59,5.07,1.79,6.42,1.19,1.35,3.17,2.02,5.95,2.02.66,0,1.51-.08,2.55-.23,1.03-.16,2.14-.37,3.18-.63v9.42s-1.03.4-2.42.6-2.23.22-3.6.22c-5.66,0-10.08-1.49-13.24-4.48s-4.75-7.16-4.75-12.51V9.08h0Z"/>
    <path class="st0" d="M166.25,13.95c-1.99,0-3.71-.68-5.16-2.05s-2.17-3.01-2.17-4.92.72-3.6,2.17-4.95c1.44-1.35,3.16-2.02,5.16-2.02s3.77.67,5.21,2.02c1.44,1.35,2.17,3,2.17,4.95s-.72,3.56-2.17,4.92c-1.45,1.37-3.18,2.05-5.21,2.05ZM160.92,90.18V24.67h10.55v65.51h-10.55Z"/>
    <path class="st0" d="M232.94,114.67h-10.55v-34.63h-.82c-.7,1.21-1.75,2.72-3.13,4.54-1.39,1.82-3.34,3.44-5.86,4.86s-5.87,2.14-10.05,2.14c-5.43,0-10.23-1.39-14.41-4.16-4.18-2.77-7.44-6.7-9.79-11.78-2.34-5.08-3.52-11.09-3.52-18.05s1.18-12.9,3.54-17.96,5.63-8.95,9.81-11.69c4.18-2.73,8.98-4.1,14.41-4.1,4.26,0,7.64.7,10.14,2.11s4.42,3,5.77,4.78c1.35,1.78,2.37,3.25,3.08,4.42h1.17v-10.49h10.2v90h.01ZM204.11,82.15c3.98,0,7.34-1.04,10.08-3.13,2.73-2.09,4.8-4.99,6.21-8.7s2.11-7.99,2.11-12.83-.69-9.07-2.08-12.69c-1.39-3.61-3.45-6.44-6.18-8.47-2.73-2.03-6.11-3.05-10.14-3.05s-7.59,1.07-10.34,3.22-4.81,5.05-6.18,8.7-2.05,7.74-2.05,12.28.69,8.72,2.08,12.45,3.47,6.7,6.24,8.91c2.77,2.21,6.19,3.31,10.25,3.31h0Z"/>
    <path class="st0" d="M261.66,91c-4.42,0-8.29-.91-11.63-2.72-3.34-1.82-5.94-4.56-7.79-8.23-1.86-3.67-2.78-8.26-2.78-13.77V24.67h10.55v40.72c0,5.04,1.33,8.98,3.98,11.84,2.66,2.85,6.27,4.28,10.84,4.28,3.12,0,5.93-.68,8.41-2.05s4.44-3.37,5.89-6.01c1.44-2.64,2.17-5.81,2.17-9.52V24.67h10.61v65.51h-10.2v-15.88h1.41c-2.03,6.13-4.91,10.45-8.64,12.95s-8,3.75-12.8,3.75h-.02Z"/>
    <path class="st0" d="M325.08,91.58c-5.94,0-11.14-1.41-15.62-4.22-4.47-2.81-7.96-6.76-10.46-11.84-2.5-5.08-3.75-10.98-3.75-17.7s1.25-12.8,3.75-17.9,5.99-9.05,10.46-11.87c4.47-2.81,9.68-4.22,15.62-4.22s11.21,1.41,15.7,4.22c4.49,2.81,7.99,6.77,10.49,11.87s3.75,11.06,3.75,17.9-1.25,12.62-3.75,17.7c-2.5,5.08-6,9.02-10.49,11.84-4.49,2.81-9.73,4.22-15.7,4.22ZM325.08,82.15c4.41,0,8.05-1.13,10.9-3.4,2.85-2.27,4.96-5.24,6.33-8.94,1.37-3.69,2.05-7.69,2.05-11.98s-.68-8.37-2.05-12.1c-1.37-3.73-3.48-6.74-6.33-9.02-2.85-2.29-6.48-3.43-10.9-3.43s-7.97,1.14-10.78,3.43-4.9,5.28-6.27,8.99c-1.37,3.71-2.05,7.75-2.05,12.13s.68,8.29,2.05,11.98,3.46,6.67,6.27,8.94c2.81,2.27,6.41,3.4,10.78,3.4Z"/>
  </g>
</svg>