<svg xmlns="http://www.w3.org/2000/svg" viewBox="0 0 128 128">
  <rect width="128" height="128" rx="26" fill="#171916"/>
  <g fill="#fffdf7" transform="translate(19.7 17.6) scale(.82)">
    <path d="M73.14 91.81c-3.08 0-6.13-.4-9.06-1.19l-3.49-.94 1.05-3.46c.78-2.58 1.18-5.29 1.18-8.05 0-7.03-2.62-13.74-7.38-18.9l-2.19-2.37 2.19-2.37c4.76-5.16 7.38-11.88 7.38-18.92 0-2.76-.4-5.46-1.18-8.04l-1.05-3.46 3.49-.94c2.93-.79 5.98-1.19 9.06-1.19 19.25 0 34.91 15.66 34.91 34.91S92.39 91.81 73.14 91.81Zm-3.9-7.27c1.28.18 2.59.27 3.9.27 15.39 0 27.91-12.52 27.91-27.91S88.53 28.99 73.14 28.99c-1.31 0-2.61.09-3.9.27.38 2.08.58 4.21.58 6.36 0 7.76-2.55 15.21-7.23 21.29 4.68 6.08 7.23 13.52 7.23 21.27 0 2.15-.19 4.28-.58 6.36Z"/>
    <path d="M34.91 113.09C15.66 113.09 0 97.43 0 78.18c0-8.79 3.28-17.19 9.24-23.64l2.57-2.78 2.57 2.78c5.29 5.72 12.77 9 20.53 9 2.46 0 4.9-.32 7.24-.95l3.29-.88.98 3.26c2.75 9.18 10.22 16.42 19.48 18.91l3.48.93-1.04 3.45c-4.39 14.63-18.14 24.84-33.43 24.84Zm-22.79-51.02C8.79 66.75 7 72.36 7 78.18c0 15.39 12.52 27.91 27.91 27.91 11.08 0 21.15-6.71 25.55-16.66-8.88-3.48-16.07-10.55-19.67-19.39-1.93.33-3.9.49-5.88.49-8.37 0-16.48-3.04-22.79-8.46Z"/>
    <path d="m67.36 91.5-3.27-.88c-10.54-2.82-19.22-10.57-23.29-20.58-1.93.33-3.9.49-5.88.49-9.71 0-19.06-4.1-25.67-11.24l-2.19-2.37 2.19-2.38c6.59-7.16 15.95-11.26 25.67-11.26 1.98 0 3.95.17 5.87.49 4.09-10.03 12.77-17.78 23.3-20.59l3.27-.88.98 3.24c.98 3.24 1.48 6.63 1.48 10.08 0 7.76-2.55 15.21-7.23 21.29 4.68 6.08 7.23 13.52 7.23 21.27 0 3.44-.5 6.83-1.48 10.08Zm-21.92-29.8.98 3.26c2.4 8.01 8.4 14.55 16.05 17.73.24-1.48.36-2.99.36-4.51 0-7.03-2.62-13.74-7.38-18.9l-2.19-2.37 2.19-2.37c4.76-5.16 7.38-11.88 7.38-18.92 0-1.52-.12-3.03-.36-4.51-7.64 3.18-13.64 9.72-16.06 17.75l-.98 3.26-3.28-.89c-2.33-.63-4.76-.95-7.23-.95-6.62 0-13.04 2.38-18.05 6.63 5.02 4.24 11.43 6.62 18.05 6.62 2.46 0 4.9-.32 7.24-.95Z"/>
    <path d="m11.81 62.08-2.57-2.79C3.28 52.82 0 44.41 0 35.62 0 16.37 15.66.71 34.91.71c15.29 0 29.04 10.22 33.43 24.84L69.38 29l-3.48.93c-9.26 2.48-16.73 9.73-19.49 18.92l-.98 3.26-3.28-.89c-2.33-.63-4.76-.95-7.23-.95-7.77 0-15.26 3.28-20.53 9ZM34.91 7.71C19.52 7.71 7 20.23 7 35.62c0 5.82 1.8 11.43 5.12 16.13 6.3-5.42 14.41-8.47 22.79-8.47 1.98 0 3.95.17 5.87.49 3.61-8.85 10.8-15.92 19.67-19.4C56.05 14.41 45.98 7.71 34.91 7.71Z"/>
  </g>
</svg>
